<svg width="200" height="120" viewBox="0 0 200 120" fill="none" xmlns="http://www.w3.org/2000/svg">
  <defs>
    <linearGradient id="ws-bg" x1="0" y1="0" x2="0" y2="56" gradientUnits="userSpaceOnUse">
      <stop offset="0" stop-color="#1a1a1d"></stop>
      <stop offset="1" stop-color="#09090b"></stop>
    </linearGradient>
    <linearGradient id="ws-mark" x1="28" y1="10" x2="28" y2="46" gradientUnits="userSpaceOnUse">
      <stop offset="0" stop-color="#d9f99d"></stop>
      <stop offset="1" stop-color="#65a30d"></stop>
    </linearGradient>
    <radialGradient id="ws-halo" cx="100" cy="28" r="40" gradientUnits="userSpaceOnUse">
      <stop offset="0" stop-color="#a3e635" stop-opacity="0.32"></stop>
      <stop offset="1" stop-color="#a3e635" stop-opacity="0"></stop>
    </radialGradient>
  </defs>
  <ellipse cx="100" cy="28" rx="80" ry="32" fill="url(#ws-halo)"></ellipse>
  <rect x="72" y="0" width="56" height="56" rx="12" fill="url(#ws-bg)" stroke="#27272a"></rect>
  <g transform="translate(84, 12)">
    <path d="M0.263523 5C0.263523 5 2.23058 0 4.68941 0L8.13176 4C8.13176 4 8.13177 17.5 9.1153 18C10.0988 18.5 13.0494 8 13.5412 7C14.0329 6 15.5082 5 16 5C16.4918 5 17.9671 6 18.4588 7C18.9506 8 21.9012 18.5 22.8847 18C23.8682 17.5 23.8682 4 23.8682 4L27.3106 0C29.7694 0 31.7365 5 31.7365 5C31.7365 5 32.3294 11.4441 31.7365 15.5C30.7244 22.4235 24.8518 32 24.8518 32H19.9341C19.9341 32 17.9671 19.5 16 19.5C14.0329 19.5 12.0659 32 12.0659 32H7.14823C7.14823 32 1.27565 22.4235 0.263523 15.5C-0.329404 11.4441 0.263523 5 0.263523 5Z" fill="url(#ws-mark)"></path>
  </g>
  <text x="100" y="84" text-anchor="middle" font-family="Inter, system-ui, sans-serif" font-size="26" font-weight="700" letter-spacing="-0.04em" fill="#f4f4f5">
    WSNox
  </text>
  <text x="100" y="104" text-anchor="middle" font-family="Inter, system-ui, sans-serif" font-size="10" font-weight="500" letter-spacing="0.32em" fill="#71717a">
    MESSENGER
  </text>
</svg>