<svg width="160" height="160" viewBox="0 0 160 160" fill="none" xmlns="http://www.w3.org/2000/svg">
  <defs>
    <radialGradient id="a-halo" cx="80" cy="80" r="70" gradientUnits="userSpaceOnUse">
      <stop offset="0" stop-color="#a3e635" stop-opacity="0.5"></stop>
      <stop offset="0.5" stop-color="#a3e635" stop-opacity="0.15"></stop>
      <stop offset="1" stop-color="#a3e635" stop-opacity="0"></stop>
    </radialGradient>
    <linearGradient id="a-mark" x1="80" y1="32" x2="80" y2="128" gradientUnits="userSpaceOnUse">
      <stop offset="0" stop-color="#ecfccb"></stop>
      <stop offset="0.5" stop-color="#a3e635"></stop>
      <stop offset="1" stop-color="#4d7c0f"></stop>
    </linearGradient>
  </defs>
  <circle cx="80" cy="80" r="64" fill="url(#a-halo)">
    
    
  </circle>
  <g transform="translate(40, 40) scale(2.5)">
    <path d="M0.263523 5C0.263523 5 2.23058 0 4.68941 0L8.13176 4C8.13176 4 8.13177 17.5 9.1153 18C10.0988 18.5 13.0494 8 13.5412 7C14.0329 6 15.5082 5 16 5C16.4918 5 17.9671 6 18.4588 7C18.9506 8 21.9012 18.5 22.8847 18C23.8682 17.5 23.8682 4 23.8682 4L27.3106 0C29.7694 0 31.7365 5 31.7365 5C31.7365 5 32.3294 11.4441 31.7365 15.5C30.7244 22.4235 24.8518 32 24.8518 32H19.9341C19.9341 32 17.9671 19.5 16 19.5C14.0329 19.5 12.0659 32 12.0659 32H7.14823C7.14823 32 1.27565 22.4235 0.263523 15.5C-0.329404 11.4441 0.263523 5 0.263523 5Z" fill="url(#a-mark)">
      
    </path>
  </g>
</svg>