<svg width="32" height="32" viewBox="0 0 32 32" fill="none" xmlns="http://www.w3.org/2000/svg">
<g clip-path="url(#clip0_1_3)">
<rect width="32" height="32" fill="black"/>
<path d="M0.263523 5C0.263523 5 2.23058 0 4.68941 0L8.13176 4C8.13176 4 8.13177 17.5 9.1153 18C10.0988 18.5 13.0494 8 13.5412 7C14.0329 6 15.5082 5 16 5C16.4918 5 17.9671 6 18.4588 7C18.9506 8 21.9012 18.5 22.8847 18C23.8682 17.5 23.8682 4 23.8682 4L27.3106 0C29.7694 0 31.7365 5 31.7365 5C31.7365 5 32.3294 11.4441 31.7365 15.5C30.7244 22.4235 24.8518 32 24.8518 32H19.9341C19.9341 32 17.9671 19.5 16 19.5C14.0329 19.5 12.0659 32 12.0659 32H7.14823C7.14823 32 1.27565 22.4235 0.263523 15.5C-0.329404 11.4441 0.263523 5 0.263523 5Z" fill="url(#paint0_linear_1_3)"/>
</g>
<defs>
<linearGradient id="paint0_linear_1_3" x1="16" y1="-4.76837e-07" x2="16.5084" y2="31.9997" gradientUnits="userSpaceOnUse">
<stop stop-color="#99E500"/>
<stop offset="1" stop-color="#1A2700"/>
</linearGradient>
<clipPath id="clip0_1_3">
<rect width="32" height="32" fill="white"/>
</clipPath>
</defs>
</svg>
