<svg width="128" height="128" viewBox="0 0 128 128" fill="none" xmlns="http://www.w3.org/2000/svg">
<rect width="128" height="128" fill="black"/>
<rect width="128" height="128" fill="url(#paint0_linear_95_5)" fill-opacity="0.2"/>
<path d="M23.667 35.6562C23.667 35.6562 28.6462 23 34.8701 23L43.5835 33.125C43.5835 33.125 43.5836 67.2969 46.0731 68.5625C48.5626 69.8281 56.0313 43.25 57.2762 40.7188C58.5208 38.1875 62.2551 35.6562 63.5 35.6562C64.7449 35.6562 68.4792 38.1875 69.7239 40.7188C70.9687 43.25 78.4374 69.8281 80.9269 68.5625C83.4164 67.2969 83.4164 33.125 83.4164 33.125L92.13 23C98.3538 23 103.333 35.6562 103.333 35.6562C103.333 35.6562 104.834 51.9679 103.333 62.2344C100.771 79.7595 90.8123 102 85.9061 104C81 106 73.4582 104 73.4582 104C73.4582 104 68.4792 72.3594 63.5 72.3594C58.5208 72.3594 53.5418 104 53.5418 104C53.5418 104 46 106 41.094 104C36.1879 102 26.229 79.7595 23.667 62.2344C22.1662 51.9679 23.667 35.6562 23.667 35.6562Z" fill="url(#paint1_linear_95_5)"/>
<defs>
<linearGradient id="paint0_linear_95_5" x1="64" y1="0" x2="64" y2="128" gradientUnits="userSpaceOnUse">
<stop/>
<stop offset="1" stop-color="#BCFF35" stop-opacity="0.85"/>
</linearGradient>
<linearGradient id="paint1_linear_95_5" x1="63.5" y1="23" x2="63.5" y2="104" gradientUnits="userSpaceOnUse">
<stop stop-color="#B9D385"/>
<stop offset="0.278846" stop-color="#6FA600"/>
<stop offset="1" stop-color="#314900"/>
</linearGradient>
</defs>
</svg>
