<svg width="128" height="128" viewBox="0 0 128 128" fill="none" xmlns="http://www.w3.org/2000/svg">
<rect width="128" height="128" fill="black"/>
<path d="M6.94704 24.9688C6.94704 24.9688 14.0162 7 22.8526 7L35.2235 21.375C35.2235 21.375 35.2235 69.8906 38.7581 71.6875C42.2927 73.4844 52.8963 35.75 54.6636 32.1563C56.4309 28.5625 61.7328 24.9688 63.5 24.9688C65.2673 24.9688 70.5692 28.5625 72.3364 32.1563C74.1037 35.75 84.7074 73.4844 88.242 71.6875C91.7765 69.8906 91.7765 21.375 91.7765 21.375L104.147 7C112.984 7 120.053 24.9688 120.053 24.9688C120.053 24.9688 122.184 48.1271 120.053 62.7031C116.416 87.5844 95.311 122 95.311 122H77.6382C77.6382 122 70.5691 77.0781 63.5 77.0781C56.4309 77.0781 49.3618 122 49.3618 122H31.689C31.689 122 10.5844 87.5844 6.94704 62.7031C4.81621 48.1271 6.94704 24.9688 6.94704 24.9688Z" fill="url(#paint0_linear_52_2)"/>
<defs>
<linearGradient id="paint0_linear_52_2" x1="63.5" y1="7" x2="65.327" y2="121.999" gradientUnits="userSpaceOnUse">
<stop stop-color="#99E500"/>
<stop offset="1" stop-color="#1A2700"/>
</linearGradient>
</defs>
</svg>
